<?xml version="1.0" encoding="utf-8"?>
<!-- Generator: Adobe Illustrator 24.2.1, SVG Export Plug-In . SVG Version: 6.00 Build 0)  -->
<svg version="1.1" id="Lager_1" xmlns="http://www.w3.org/2000/svg" xmlns:xlink="http://www.w3.org/1999/xlink" x="0px" y="0px"
	 viewBox="0 0 640 360" style="enable-background:new 0 0 640 360;" xml:space="preserve">
<style type="text/css">
	.st0{fill-rule:evenodd;clip-rule:evenodd;fill:#010202;}
</style>
<path class="st0" d="M320.42,148.23c10.95,0,20.34,5.48,25.81,13.3v-37.55c-7.82-3.13-16.43-5.48-25.81-5.48
	c-34.42,0-62.58,27.38-62.58,60.23c0,33.64,28.16,60.23,62.58,60.23c9.39,0,17.99-1.56,25.81-5.48v-21.9
	c6.26,16.43,24.25,28.94,44.59,28.94c22.68,0,41.46-14.08,46.15-33.64v30.51h28.16v-46.15c0-7.04,5.48-12.52,12.52-12.52
	s12.52,5.48,12.52,12.52v46.15h28.16v-46.15c0-3.91,1.56-7.04,3.91-9.39c2.35-1.56,4.69-3.13,7.82-3.13
	c7.04,0,12.52,5.48,12.52,12.52v46.15h28.16v-51.63c0-12.52-8.6-23.47-19.56-27.38c-2.35-0.78-5.48-1.56-8.6-1.56
	c-10.17,0-18.77,5.48-24.25,13.3c0,0,0,0,0,0.78c0,0,0,0,0,0.78c-4.69-6.26-10.95-10.95-18.77-13.3c-2.35-0.78-5.48-0.78-8.6-0.78
	c-9.39,0-17.99,3.91-24.25,10.17v-9.39h-29.72v31.29c-4.69-18.77-23.47-33.64-46.15-33.64c-25.81,0-46.93,18.77-46.93,42.24
	c0,0.78,0,1.56,0,2.35c-5.48,6.26-14.08,10.17-23.47,10.17c-17.21,0-31.29-14.08-31.29-31.29S303.21,148.23,320.42,148.23z
	 M80.28,121.63h104.04l-59.45,89.96h53.19v25.03H69.32l60.23-91.52H80.28V121.63z M207.78,134.15c-25.81,0-46.93,18.77-46.93,42.24
	s21.12,42.24,46.93,42.24s46.93-18.77,46.93-42.24S234.37,134.15,207.78,134.15z M207.78,195.16c-10.17,0-18.77-8.6-18.77-18.77
	c0-10.17,8.6-18.77,18.77-18.77c10.17,0,18.77,8.6,18.77,18.77C226.55,186.56,217.95,195.16,207.78,195.16z M372.05,198.29
	c0,10.17,8.6,18.77,18.77,18.77c10.17,0,18.77-8.6,18.77-18.77c0-10.17-8.6-18.77-18.77-18.77
	C380.65,179.52,372.05,188.12,372.05,198.29z"/>
</svg>
